<svg width="402" height="874" viewBox="0 0 402 874" fill="none" xmlns="http://www.w3.org/2000/svg">
<g clip-path="url(#clip0_1674_14989)">
<rect width="402" height="874" fill="#0F0E21"/>
<g opacity="0.5">
<path d="M85.4427 654.817C106.018 684.535 126.676 714.414 142.751 746.75C146.801 754.884 150.401 765.112 145.042 772.441C140.665 778.441 131.666 779.649 124.63 777.112C117.595 774.535 112.113 769.058 107.164 763.501C84.5019 737.971 67.976 707.85 51.6547 677.971C46.5415 715.34 42.5329 754.32 32.8383 792.132C31.4884 797.407 29.9748 802.763 26.9887 807.314C23.9617 811.864 19.1758 815.609 13.6944 816.092C6.57685 816.736 -0.0907604 811.743 -3.44501 805.542C-6.79927 799.34 -7.57637 792.132 -8.06723 785.126C-10.9715 745.34 -8.55818 705.354 -6.10385 665.569C-30.3608 694.602 -53.7997 725.488 -82.7608 750.978C-89.5102 756.937 -98.5094 762.897 -106.936 759.636C-113.317 757.179 -116.712 749.931 -116.631 743.206C-116.549 736.481 -113.685 730.078 -110.74 724.038C-94.9506 691.542 -75.1114 661.099 -55.354 630.736C-87.5876 621.917 -118.962 611.609 -147.964 596.871C-155.818 592.884 -164.49 587.126 -164.981 578.428C-165.39 571.018 -159.172 564.454 -152.096 561.998C-144.978 559.501 -137.165 560.186 -129.679 561.072C-102.15 564.293 -74.866 569.85 -48.2774 577.622C-59.9764 546.938 -71.1845 515.367 -78.7929 482.951C-79.9792 477.998 -81.0428 472.884 -80.3883 467.85C-79.7338 462.817 -77.0749 457.743 -72.4117 455.488C-67.0531 452.911 -60.3854 454.683 -55.7631 458.387C-51.1408 462.092 -48.1956 467.367 -45.4549 472.602C-29.7063 502.642 -17.9256 534.495 -5.73571 566.186C-4.75398 527.891 -3.60858 488.709 10.5447 453.032C13.9808 444.334 18.4804 435.595 26.1297 430.119C33.7791 424.642 45.3553 423.515 52.3502 429.837C58.486 435.394 59.2632 444.495 59.2632 452.669C59.345 491.971 50.714 530.75 45.069 570.011C72.2303 535.461 104.709 504.938 141.033 479.81C146.76 475.824 152.896 471.877 159.85 471.072C166.804 470.267 174.78 473.528 176.948 480.092C179.198 486.857 174.699 493.864 170.403 499.622C145.287 533.166 118.413 565.421 89.1242 597.354C128.475 597.233 167.99 597.112 207.055 601.904C212.945 602.629 218.958 603.515 224.194 606.293C229.43 609.072 233.807 614.146 234.053 619.985C234.339 626.226 229.88 631.944 224.399 635.045C218.877 638.146 212.454 639.152 206.155 640.079C166.108 645.877 125.817 649.985 85.361 654.897L85.4427 654.817Z" fill="#D6FF7E" fill-opacity="0.15"/>
<path d="M87.9124 231.508L64.5145 191.642L21.7273 215.964V167.32H-25.0277V215.964L-67.8149 191.642L-91.2129 231.508L-48.4256 255.83L-91.2129 280.152L-67.8149 320.018L-25.0277 295.696V344.34H21.7273V295.696L64.5145 320.018L87.9124 280.152L45.1253 255.83L87.9124 231.508Z" fill="#BCA0F6" fill-opacity="0.15"/>
<path d="M342.094 307.404C341.848 338.854 344.343 369.941 356.001 399.659C358.047 404.894 360.91 409.766 363.201 414.88C372.527 435.498 401.693 436.021 416.133 426.598C436.135 413.551 451.271 395.954 465.547 377.39C474.423 365.793 482.236 353.551 489.067 340.746C491.153 336.88 493.649 334.545 498.762 336.558C526.905 347.632 555.498 357.417 584.173 366.921C599.185 371.874 600.739 375.9 594.563 390.397C581.636 420.76 565.151 449.028 543.431 474.276C529.605 490.384 515.738 506.572 497.575 518.008C474.546 532.504 450.657 545.632 423.25 550.666C407.011 553.645 390.771 553.202 374.368 551.471C346.88 548.572 320.986 540.719 296.484 528.276C248.788 504.035 219.991 465.9 209.028 414.236C203.301 387.337 200.11 360.236 201.542 332.813C202.524 314.048 203.956 295.283 207.637 276.76C208.619 271.887 207.719 266.813 211.155 262.303C215.246 256.947 220.4 255.176 226.658 256.505C253.82 262.263 280.899 268.223 308.06 274.021C315.178 275.551 322.418 276.598 329.536 278.088C332.195 278.652 334.772 279.739 337.226 280.947C341.235 282.88 342.994 285.739 342.339 290.612C341.603 296.129 342.175 301.847 342.175 307.444L342.094 307.404Z" fill="#FE4366" fill-opacity="0.15"/>
</g>
</g>
<defs>
<clipPath id="clip0_1674_14989">
<rect width="402" height="874" fill="white"/>
</clipPath>
</defs>
</svg>
