<svg width="402" height="701" viewBox="0 0 402 701" fill="none" xmlns="http://www.w3.org/2000/svg">
<path d="M200.993 122C168.882 122 137.818 133.523 113.549 154.461C83.9623 179.965 67 216.965 67 255.993C67 258.035 67.0403 260.022 67.1343 261.903C68.6385 296.445 83.2237 328.678 108.217 352.677C133.292 376.744 166.236 390 201.007 390C274.886 390 335 329.886 335 256.007C335 182.127 274.9 122.013 201.007 122.013L200.993 122Z" fill="#FFFEFC"/>
<path d="M202.013 202.769C168.84 202.769 141.939 226.595 141.939 255.993C141.939 266.684 145.512 276.622 151.623 284.962C148.923 288.347 145.31 291.436 140.61 292.591C139.67 292.819 139.643 294.149 140.57 294.417C145.23 295.733 153.275 297.184 160.742 294.646C171.499 303.671 186.017 309.217 202.013 309.217C235.185 309.217 262.086 285.392 262.086 255.993C262.086 226.595 235.185 202.769 202.013 202.769Z" fill="#9B71F1"/>
<path d="M178.04 264.186C182.735 264.186 186.541 260.38 186.541 255.684C186.541 250.989 182.735 247.183 178.04 247.183C173.345 247.183 169.539 250.989 169.539 255.684C169.539 260.38 173.345 264.186 178.04 264.186Z" fill="#FFFEFC"/>
<path d="M202.884 264.186C207.579 264.186 211.385 260.38 211.385 255.684C211.385 250.989 207.579 247.183 202.884 247.183C198.189 247.183 194.382 250.989 194.382 255.684C194.382 260.38 198.189 264.186 202.884 264.186Z" fill="#FFFEFC"/>
<path d="M227.749 263.487C232.444 263.487 236.25 259.681 236.25 254.986C236.25 250.291 232.444 246.485 227.749 246.485C223.054 246.485 219.248 250.291 219.248 254.986C219.248 259.681 223.054 263.487 227.749 263.487Z" fill="#FFFEFC"/>
<path d="M240.916 159.52C241.42 158.018 243.015 157.17 244.556 157.602L245.503 157.874C255.554 160.831 273.606 168.258 288.343 185.859L288.982 186.631C301.832 202.325 306.453 218.89 308.042 230.446L308.189 231.566L308.189 231.567L308.204 231.72C308.314 233.296 307.179 234.705 305.59 234.897L305.586 234.898C305.372 234.92 305.151 234.929 304.941 234.909L304.929 234.908C303.656 234.787 302.566 233.843 302.29 232.559L302.247 232.298C301.154 223.456 297.365 206.367 284.38 190.45L283.754 189.693C270.018 173.287 253.183 166.355 243.819 163.606L242.936 163.352C241.343 162.906 240.425 161.257 240.871 159.666L240.916 159.52Z" fill="#9B71F1" stroke="#9B71F1" stroke-width="0.5"/>
<path d="M159.429 355.772C158.928 357.274 157.334 358.125 155.792 357.696L154.845 357.425C144.789 354.486 126.724 347.09 111.956 329.515L111.957 329.515C98.5927 313.617 93.816 296.704 92.1803 284.961L92.0318 283.841L92.0319 283.84L92.0167 283.688C91.9038 282.112 93.0367 280.701 94.6253 280.506L94.6292 280.506C94.8429 280.483 95.0644 280.474 95.2738 280.493L95.2864 280.494C96.5591 280.613 97.6511 281.555 97.9287 282.839L97.973 283.1C99.0808 291.939 102.899 309.022 115.912 324.917L116.539 325.673C130.304 342.055 147.15 348.958 156.519 351.691L157.403 351.943C158.996 352.386 159.917 354.034 159.474 355.625L159.429 355.772Z" fill="#9B71F1" stroke="#9B71F1" stroke-width="0.5"/>
<path d="M230.555 183.314C230.91 181.829 232.344 180.854 233.853 181.044L234.004 181.067L234.006 181.067L234.619 181.185C241.131 182.475 252.992 186.103 263.429 196.224L264.31 197.095C272.966 205.848 276.985 215.539 278.84 222.436L279.018 223.117L279.018 223.118L279.052 223.268C279.363 224.82 278.411 226.359 276.869 226.751L276.866 226.753L276.865 226.752C276.752 226.779 276.632 226.81 276.495 226.827C275.118 226.998 273.788 226.19 273.318 224.873L273.235 224.603C271.641 218.394 268.071 209.398 260.068 201.3L259.28 200.519C249.634 191.174 238.627 188.002 232.92 186.947L232.919 186.947C231.303 186.646 230.224 185.096 230.523 183.464L230.523 183.463L230.555 183.314Z" fill="#9B71F1" stroke="#9B71F1" stroke-width="0.5"/>
<path d="M121.592 291.751C123.068 291.193 124.739 291.885 125.378 293.348L125.921 294.562C128.685 300.607 132.219 306.241 136.448 311.298H136.448L137.14 312.115C144.351 320.507 153.606 327.334 163.968 331.925H163.969C165.481 332.586 166.153 334.36 165.494 335.867L165.493 335.869C164.995 336.982 163.91 337.642 162.767 337.642H162.754C162.341 337.642 161.946 337.553 161.558 337.395L161.551 337.393V337.392C150.381 332.459 140.398 325.074 132.608 316.018L131.861 315.137C127.288 309.667 123.474 303.583 120.495 297.05L119.91 295.737C119.251 294.228 119.94 292.468 121.449 291.809L121.592 291.751Z" fill="#9B71F1" stroke="#9B71F1" stroke-width="0.5"/>
</svg>
