<svg width="130" height="29" viewBox="0 0 130 29" fill="none" xmlns="http://www.w3.org/2000/svg">
<path d="M9.78868 0.78508C10.9912 0.78508 11.7923 0.970941 12.1936 1.33983C12.5934 1.71013 12.7941 2.2138 12.7941 2.85083C12.4787 4.25401 12.243 5.84163 12.0853 7.6137C11.9277 9.38576 11.821 11.1905 11.7636 13.0264C11.7063 14.8623 11.692 16.6358 11.7206 18.344C11.7493 20.0522 11.8066 21.5448 11.8926 22.8202C11.8926 23.4842 12.079 23.9553 12.4517 24.2362C12.8228 24.5171 13.3245 24.6703 13.9552 24.6959C14.9856 24.7214 15.8728 24.5682 16.6181 24.2362C17.3619 23.9056 18.0133 23.4715 18.5724 22.9352C19.1314 22.3989 19.6172 21.82 20.0329 21.1943C20.447 20.57 20.842 19.9827 21.2131 19.435C21.5842 18.8874 21.9569 18.4277 22.3295 18.0574C22.7006 17.6885 23.1307 17.5026 23.618 17.5026C23.9334 17.5026 24.2328 17.592 24.5195 17.7708C24.8046 17.9496 24.9495 18.2305 24.9495 18.6121V26.4538C24.9495 26.7858 24.8858 27.0539 24.7568 27.2568C24.6278 27.4611 24.3634 27.5632 23.9621 27.5632H3.00541C1.80293 27.5632 1.0018 27.3788 0.600446 27.0085C0.199087 26.6396 0 26.1345 0 25.4975C0.315353 23.3041 0.543109 21.3149 0.686451 19.5301C0.829793 17.7453 0.901463 15.9916 0.901463 14.2706C0.901463 12.5497 0.829793 10.7776 0.686451 8.95303C0.543109 7.12989 0.31376 5.09535 0 2.85083C0 2.2138 0.199087 1.71013 0.600446 1.33983C1.00021 0.970941 1.80293 0.78508 3.00541 0.78508H9.79028H9.78868Z" fill="#FFFEFC"/>
<path d="M26.2627 25.4975C26.5863 23.3041 26.82 21.3149 26.9672 19.5301C27.1143 17.7453 27.1878 15.9916 27.1878 14.2706C27.1878 12.5497 27.1143 10.7776 26.9672 8.95303C26.82 7.12989 26.5847 5.09535 26.2627 2.85083C26.2627 2.2138 26.467 1.71013 26.8789 1.33983C27.2891 0.970941 28.1129 0.78508 29.3469 0.78508H36.3098C37.5438 0.78508 38.3659 0.970941 38.7778 1.33983C39.1881 1.71013 39.394 2.2138 39.394 2.85083C39.0704 5.09535 38.835 7.12989 38.6896 8.95303C38.5425 10.7762 38.4689 12.5497 38.4689 14.2706C38.4689 15.9916 38.549 17.7453 38.7108 19.5301C38.8726 21.3149 39.0998 23.3055 39.394 25.4975C39.394 26.136 39.1881 26.6396 38.7778 27.0085C38.3659 27.3788 37.5438 27.5632 36.3098 27.5632H29.3469C28.1129 27.5632 27.2908 27.3788 26.8789 27.0085C26.467 26.6396 26.2627 26.1345 26.2627 25.4975Z" fill="#FFFEFC"/>
<path d="M40.7102 25.4975C41.028 23.3041 41.2574 21.3149 41.4019 19.5301C41.5463 17.7453 41.6185 15.9916 41.6185 14.2706C41.6185 12.5497 41.5463 10.7776 41.4019 8.95303C41.2574 7.12989 41.0264 5.09535 40.7102 2.85083C40.7102 2.2138 40.9108 1.71013 41.3152 1.33983C41.718 0.970941 42.5268 0.78508 43.7383 0.78508H51.0076C51.7281 0.78508 52.3491 0.943983 52.8674 1.26321C53.3874 1.58244 53.7757 2.11164 54.0357 2.85083L58.0153 15.8185C58.1309 16.2016 58.2897 16.3605 58.4919 16.2967C58.6941 16.2328 58.808 16.0228 58.8385 15.6653C58.8963 14.4664 58.9252 13.4023 58.9252 12.4716C58.9252 11.5409 58.8963 10.6031 58.8385 9.65958C58.7808 8.71609 58.6797 7.70876 58.5352 6.63757C58.3908 5.56639 58.2175 4.30367 58.0153 2.85083C58.0153 2.2138 58.2159 1.71013 58.6203 1.33983C59.0247 0.970941 59.8318 0.78508 61.0434 0.78508H67.8794C69.091 0.78508 69.8981 0.970941 70.3025 1.33983C70.7069 1.71013 70.9075 2.2138 70.9075 2.85083C70.6186 5.04427 70.3956 7.03341 70.2367 8.81824C70.0778 10.6031 69.9992 12.3567 69.9992 14.0777C69.9992 15.7987 70.0714 17.5722 70.2158 19.3953C70.3603 21.2184 70.5914 23.253 70.9091 25.4975C70.9091 26.136 70.7069 26.6396 70.3041 27.0085C69.8997 27.3788 69.0926 27.5632 67.881 27.5632H60.6117C59.8912 27.5632 59.2622 27.4043 58.7294 27.0851C58.195 26.7659 57.8131 26.2381 57.5837 25.4975L53.5591 12.0701C53.4724 11.7395 53.328 11.5863 53.1258 11.6104C52.9236 11.636 52.8081 11.8275 52.7792 12.1836C52.7214 13.3825 52.6925 14.4735 52.6925 15.4539C52.6925 16.4343 52.7214 17.4246 52.7792 18.4192C52.837 19.4137 52.938 20.4722 53.0825 21.5944C53.2269 22.7167 53.3986 24.0177 53.6008 25.4961C53.6008 26.1345 53.3986 26.6382 52.9942 27.0071C52.5898 27.3774 51.7827 27.5618 50.5711 27.5618H43.7351C42.5236 27.5618 41.7164 27.3774 41.312 27.0071C40.9076 26.6382 40.707 26.1331 40.707 25.4961L40.7102 25.4975Z" fill="#FFFEFC"/>
<path d="M94.6833 11.6473C95.6206 12.0559 96.4156 12.6745 97.07 13.5031C97.7228 14.3316 98.2492 15.3333 98.6475 16.5066C99.0442 17.68 99.3288 19.025 99.4995 20.5431C99.6702 22.0612 99.7698 23.7127 99.7982 25.4975C99.7982 26.1359 99.599 26.6396 99.2023 27.0085C98.804 27.3788 98.0089 27.5632 96.8155 27.5632H90.7633C89.5699 27.5632 88.7748 27.3788 88.3765 27.0085C87.9782 26.6396 87.779 26.1345 87.779 25.4975C88.0351 23.4828 88.2121 21.7363 88.3117 20.2565C88.4113 18.7781 88.3828 17.5409 88.2264 16.5464C88.0699 15.5518 87.779 14.7998 87.3523 14.2891C86.9255 13.7797 86.3154 13.5116 85.5203 13.4861H84.9228C84.3269 13.4861 84.0282 13.767 84.0282 14.3274C84.0282 16.0626 84.0993 17.8091 84.2416 19.5684C84.3838 21.3277 84.6099 23.3055 84.9228 25.4975C84.9228 26.1359 84.7237 26.6396 84.3269 27.0085C83.9286 27.3788 83.1335 27.5632 81.9402 27.5632H75.2067C74.0133 27.5632 73.2166 27.3788 72.8199 27.0085C72.4216 26.6396 72.2224 26.1345 72.2224 25.4975C72.5354 23.3041 72.7614 21.3149 72.9052 19.5301C73.0475 17.7452 73.1186 15.9916 73.1186 14.2706C73.1186 12.5497 73.0475 10.7776 72.9052 8.95303C72.763 7.12989 72.5354 5.09535 72.2224 2.85083C72.2224 2.2138 72.4216 1.71013 72.8199 1.33983C73.2166 0.970941 74.0133 0.78508 75.2067 0.78508H81.9402C83.1335 0.78508 83.9286 0.970941 84.3269 1.33983C84.7253 1.71013 84.9228 2.2138 84.9228 2.85083C84.7521 4.07525 84.6035 5.23581 84.4755 6.33253C84.3475 7.42925 84.2542 8.48767 84.1989 9.50778C84.1704 10.0427 84.455 10.3108 85.0509 10.3108H85.3069C85.789 10.2853 86.2079 10.1704 86.5635 9.96605C86.9192 9.76174 87.2163 9.39285 87.4582 8.85655C87.7 8.32167 87.8913 7.56829 88.0335 6.59926C88.1758 5.63023 88.2738 4.38028 88.3323 2.85083C88.3323 2.2138 88.5314 1.71013 88.9297 1.33983C89.3281 0.970941 90.1231 0.78508 91.3165 0.78508H96.3888C97.5821 0.78508 98.3772 0.970941 98.7755 1.33983C99.1738 1.71013 99.3714 2.2138 99.3714 2.85083C99.3714 5.52808 99.0158 7.49878 98.3061 8.7615C97.5948 10.0242 96.403 10.8343 94.7259 11.1905C94.413 11.2415 94.2565 11.2997 94.2565 11.3621C94.2565 11.4246 94.3987 11.5225 94.6817 11.6487L94.6833 11.6473Z" fill="#FFFEFC"/>
<path d="M114.456 0.683624C110.731 0.683624 107.128 1.86872 104.313 4.02207C100.881 6.64504 98.9133 10.4503 98.9133 14.4642C98.9133 14.6742 98.918 14.8786 98.9289 15.072C99.1034 18.6245 100.795 21.9395 103.694 24.4077C106.603 26.8829 110.424 28.2462 114.457 28.2462C123.027 28.2462 130 22.0638 130 14.4656C130 6.86742 123.029 0.685003 114.457 0.685003L114.456 0.683624Z" fill="#FFFEFC"/>
<path d="M114.574 8.99038C110.726 8.99038 107.606 11.4407 107.606 14.4642C107.606 15.5637 108.02 16.5858 108.729 17.4435C108.416 17.7916 107.997 18.1093 107.452 18.2281C107.343 18.2516 107.34 18.3883 107.447 18.4159C107.988 18.5513 108.921 18.7005 109.787 18.4394C111.035 19.3676 112.719 19.9381 114.574 19.9381C118.422 19.9381 121.542 17.4877 121.542 14.4642C121.542 11.4407 118.422 8.99038 114.574 8.99038Z" fill="#9B71F1"/>
<path d="M111.793 15.3068C112.338 15.3068 112.78 14.9153 112.78 14.4324C112.78 13.9496 112.338 13.5581 111.793 13.5581C111.249 13.5581 110.807 13.9496 110.807 14.4324C110.807 14.9153 111.249 15.3068 111.793 15.3068Z" fill="#FFFEFC"/>
<path d="M114.675 15.3068C115.22 15.3068 115.661 14.9153 115.661 14.4324C115.661 13.9496 115.22 13.5581 114.675 13.5581C114.131 13.5581 113.689 13.9496 113.689 14.4324C113.689 14.9153 114.131 15.3068 114.675 15.3068Z" fill="#FFFEFC"/>
<path d="M117.56 15.2349C118.104 15.2349 118.546 14.8435 118.546 14.3606C118.546 13.8777 118.104 13.4863 117.56 13.4863C117.015 13.4863 116.573 13.8777 116.573 14.3606C116.573 14.8435 117.015 15.2349 117.56 15.2349Z" fill="#FFFEFC"/>
<path d="M119.566 4.12783L119.567 4.12792L120.049 4.25963C121.276 4.62626 123.172 5.42312 124.75 7.09441L125.044 7.41998C126.264 8.83527 126.797 10.2973 127.025 11.4217L127.109 11.9148L127.109 11.9158L127.112 12.0326C127.088 12.2948 126.861 12.4898 126.607 12.5171L126.603 12.5178C126.571 12.5207 126.531 12.5225 126.49 12.519L126.488 12.5189C126.28 12.5014 126.077 12.37 126.004 12.1587L125.982 12.0638C125.865 11.2256 125.472 9.63384 124.167 8.1064L123.893 7.80214C122.489 6.31453 120.795 5.60078 119.695 5.27227L119.263 5.15356C118.983 5.08387 118.772 4.8051 118.87 4.49439L118.917 4.38956C119.047 4.16265 119.327 4.06861 119.566 4.12783Z" fill="#9B71F1" stroke="#9B71F1" stroke-width="0.5"/>
<path d="M109.156 25.1412L109.155 25.1412L108.673 25.0102C107.445 24.6454 105.548 23.8514 103.967 22.1825L103.672 21.8574C102.449 20.4437 101.912 18.9826 101.683 17.8584L101.597 17.3655L101.597 17.3645L101.595 17.2477C101.618 16.9855 101.845 16.79 102.099 16.7624L102.103 16.7627C102.135 16.7597 102.175 16.7579 102.216 16.7613L102.218 16.7614C102.425 16.7787 102.63 16.909 102.703 17.1199L102.725 17.2148C102.844 18.0529 103.24 19.6441 104.547 21.1696L104.822 21.4734C106.229 22.9589 107.925 23.6701 109.025 23.9969L109.457 24.115C109.738 24.1843 109.949 24.4627 109.851 24.7736L109.805 24.8785C109.675 25.1056 109.395 25.2001 109.156 25.1412Z" fill="#9B71F1" stroke="#9B71F1" stroke-width="0.5"/>
<path d="M118.207 6.53051L118.313 6.53755L118.314 6.53841L118.631 6.59777C119.438 6.76811 120.707 7.17546 121.84 8.14939L121.839 8.14949C122.846 9.01488 123.361 9.98062 123.623 10.7233L123.719 11.0269L123.719 11.0278L123.739 11.1425C123.754 11.4044 123.557 11.6195 123.312 11.6747L123.309 11.6761C123.299 11.6782 123.273 11.6839 123.245 11.687C122.99 11.7151 122.704 11.5733 122.623 11.292L122.543 11.0436C122.344 10.4794 121.966 9.75379 121.248 9.08077L121.076 8.92681C120.137 8.11973 119.077 7.7775 118.397 7.634L118.131 7.58379L118.13 7.5839C117.841 7.53604 117.598 7.27079 117.664 6.95272L117.664 6.95175L117.698 6.84679C117.788 6.6487 117.995 6.53464 118.207 6.53051Z" fill="#9B71F1" stroke="#9B71F1" stroke-width="0.5"/>
<path d="M105.253 17.9094C105.496 17.8629 105.765 17.9671 105.883 18.2062L106.007 18.4474C106.308 19.0048 106.684 19.526 107.129 19.9973L107.449 20.3176C108.223 21.0472 109.178 21.6467 110.239 22.0637H110.24C110.52 22.1721 110.679 22.4892 110.536 22.7795L110.535 22.7814C110.433 22.9828 110.223 23.086 110.022 23.0861H110.021C109.982 23.0861 109.946 23.082 109.91 23.0754L109.808 23.0471L109.802 23.0451C108.436 22.5105 107.217 21.6998 106.277 20.7014V20.7023C105.696 20.0862 105.217 19.3953 104.853 18.6516L104.854 18.6506C104.71 18.3577 104.874 18.0447 105.15 17.9377L105.253 17.9094Z" fill="#9B71F1" stroke="#9B71F1" stroke-width="0.5"/>
</svg>
