<svg width="32" height="32" viewBox="0 0 32 32" fill="none" xmlns="http://www.w3.org/2000/svg">
<path id="Vector" d="M20.1249 0H11.8736L10.9271 4.70836C10.1434 5.05754 9.39814 5.4865 8.70333 5.98836L4.12417 4.448L0 11.552L3.62968 14.7229C3.54203 15.5721 3.54203 16.4279 3.62968 17.2771L0 20.448L4.12563 27.552L8.70333 26.0131C9.39386 26.5105 10.1371 26.9411 10.9271 27.2916L11.8736 32H20.1249L21.0715 27.2916C21.8552 26.9425 22.6004 26.5135 23.2952 26.0116L27.8744 27.552L32 20.448L28.3689 17.2771C28.4565 16.4279 28.4565 15.5721 28.3689 14.7229L31.9985 11.552L27.8729 4.448L23.2967 5.98691C22.6018 5.48555 21.8566 5.05708 21.0729 4.70836L20.1249 0ZM15.9993 21.8182C14.4472 21.8182 12.9588 21.2052 11.8613 20.1141C10.7638 19.023 10.1473 17.5431 10.1473 16C10.1473 14.4569 10.7638 12.977 11.8613 11.8859C12.9588 10.7948 14.4472 10.1818 15.9993 10.1818C17.5513 10.1818 19.0398 10.7948 20.1372 11.8859C21.2347 12.977 21.8512 14.4569 21.8512 16C21.8512 17.5431 21.2347 19.023 20.1372 20.1141C19.0398 21.2052 17.5513 21.8182 15.9993 21.8182Z" fill="#C2FF3E"/>
</svg>
